<?xml version="1.0" standalone="no"?>
<!DOCTYPE svg PUBLIC "-//W3C//DTD SVG 20010904//EN"
 "http://www.w3.org/TR/2001/REC-SVG-20010904/DTD/svg10.dtd">
<svg version="1.0" xmlns="http://www.w3.org/2000/svg"
 width="512.000000pt" height="512.000000pt" viewBox="0 0 512.000000 512.000000"
 preserveAspectRatio="xMidYMid meet">

<g transform="translate(0.000000,512.000000) scale(0.100000,-0.100000)"
fill="#000000" stroke="none">
<path d="M2315 4654 c-1204 -162 -2021 -1308 -1780 -2497 178 -875 896 -1546
1780 -1662 134 -17 402 -20 525 -5 614 77 1156 411 1502 927 78 116 197 361
243 498 169 514 131 1084 -105 1573 -264 547 -759 956 -1346 1113 -248 66
-570 87 -819 53z m515 -664 c476 -97 868 -416 1052 -858 186 -445 137 -956
-128 -1355 -210 -315 -540 -538 -917 -619 -136 -29 -417 -32 -550 -5 -299 60
-542 190 -758 406 -204 205 -327 429 -391 712 -31 140 -34 455 -4 589 107 489
442 886 894 1061 96 36 253 76 352 88 115 15 330 5 450 -19z"/>
<path d="M2325 3854 c-462 -81 -858 -421 -1005 -862 -51 -153 -65 -241 -65
-417 0 -176 14 -263 66 -419 148 -443 539 -778 1007 -862 113 -20 331 -20 444
0 533 95 937 489 1055 1028 25 117 25 390 -1 508 -116 533 -528 934 -1055
1024 -116 20 -334 20 -446 0z m371 -185 c588 -82 1009 -609 953 -1194 -24
-261 -124 -476 -307 -667 -492 -512 -1329 -430 -1719 169 -62 94 -113 211
-144 330 -27 100 -37 330 -19 441 34 216 137 424 288 583 242 258 603 386 948
338z"/>
<path d="M2040 2558 l0 -703 427 5 c406 5 431 7 493 28 120 40 191 100 239
202 23 50 26 67 26 175 0 110 -2 125 -27 175 -15 30 -35 64 -45 76 -37 42
-111 91 -157 104 -25 7 -46 15 -46 19 0 4 16 15 36 26 80 43 132 172 120 299
-16 173 -115 264 -308 286 -46 6 -235 10 -420 10 l-338 0 0 -702z m722 435
c63 -29 83 -62 83 -139 0 -68 -15 -98 -69 -138 -25 -19 -43 -21 -247 -24
l-219 -3 0 167 0 166 203 -4 c178 -4 207 -6 249 -25z m-7 -514 c86 -15 135
-45 163 -99 40 -80 19 -192 -44 -237 -60 -42 -98 -48 -332 -48 l-223 0 0 193
c0 105 1 194 1 197 0 10 374 5 435 -6z"/>
</g>
</svg>
